<svg xmlns="http://www.w3.org/2000/svg" xmlns:svg="http://www.w3.org/2000/svg" id="svg1920" width="24" height="24" version="1.1" viewBox="0 0 6.35 6.35"><defs id="defs1917"><marker style="overflow:visible" id="Arrow1Lstart" orient="auto" refX="0" refY="0"><path transform="scale(0.8) translate(12.5,0)" style="fill-rule:evenodd;fill:context-stroke;stroke:context-stroke;stroke-width:1pt" id="path7176" d="M 0.0,0.0 L 5.0,-5.0 L -12.5,0.0 L 5.0,5.0 L 0.0,0.0 z"/></marker></defs><g id="layer1"><path id="rect2406" style="fill:none;stroke:#fff;stroke-width:.52916;stroke-linecap:butt;stroke-linejoin:bevel" d="M 2.38122,2.6458 H 2.6458 V 1.05832 c 0,-0.29315463 0.2360055,-0.52915998 0.5291601,-0.52915998 H 5.2916 c 0.2931547,0 0.52916,0.23600535 0.52916,0.52915998 v 2.11664 c 0,0.2931546 -0.236005,0.5291599 -0.5291601,0.5291599 L 3.70412,3.70412 V 3.9687"/><path id="rect2406-0" style="fill:none;stroke:#fff;stroke-width:2;stroke-opacity:1" d="M 7,10 H 4 c -1.1079999,0 -2,0.892 -2,2 v 8 c 0,1.108 0.8920001,2 2,2 h 8 c 1.108,0 2,-0.892 2,-2 l 0,-3" transform="scale(0.26458)"/><path style="fill:none;stroke:#fff;stroke-width:.52916;stroke-linecap:round;stroke-linejoin:miter;stroke-miterlimit:4;stroke-dasharray:none;stroke-opacity:1" id="path3902" d="M 3.70412,2.6458 1.58748,4.76244"/><path style="fill:none;stroke:#fff;stroke-width:.52916;stroke-linecap:round;stroke-linejoin:round;stroke-miterlimit:4;stroke-dasharray:none;stroke-opacity:1" id="path4182" d="M 1.58748,3.70412 V 4.76244 H 2.6458"/></g></svg>